<?xml version="1.0" standalone="no"?>
<!DOCTYPE svg PUBLIC "-//W3C//DTD SVG 20010904//EN"
 "http://www.w3.org/TR/2001/REC-SVG-20010904/DTD/svg10.dtd">
<svg version="1.0" xmlns="http://www.w3.org/2000/svg"
 width="370.000000pt" height="744.000000pt" viewBox="0 0 370.000000 744.000000"
 preserveAspectRatio="xMidYMid meet">

<g transform="translate(0.000000,744.000000) scale(0.100000,-0.100000)"
fill="#000000" stroke="none">
<path d="M525 7430 c-177 -20 -339 -129 -423 -287 -54 -103 -62 -152 -62 -400
0 -212 -1 -223 -20 -233 -18 -10 -20 -21 -20 -141 0 -122 1 -131 20 -136 18
-5 20 -14 20 -104 0 -88 -2 -99 -20 -109 -19 -10 -20 -21 -20 -236 0 -217 1
-226 20 -231 18 -5 20 -14 20 -79 0 -57 -3 -74 -14 -74 -8 0 -17 -7 -20 -16
-3 -9 -6 -112 -6 -230 0 -203 1 -214 20 -226 20 -13 20 -24 20 -2233 0 -2450
-5 -2272 63 -2399 67 -125 187 -223 332 -269 l70 -22 1350 0 1350 0 70 23 c96
32 170 79 241 154 63 65 90 110 128 208 l21 55 3 2255 c2 1983 4 2255 17 2263
13 7 15 72 15 472 0 407 -2 465 -15 465 -13 0 -15 64 -15 513 0 321 -4 536
-11 573 -33 186 -179 352 -370 422 l-74 27 -1310 1 c-720 1 -1341 -2 -1380 -6z
m472 -195 c14 -10 23 -30 28 -62 12 -87 66 -154 144 -181 48 -17 1307 -17
1362 -1 78 24 149 113 149 187 0 19 8 40 20 52 19 19 33 20 224 20 112 0 227
-5 257 -10 117 -22 209 -92 261 -198 l33 -67 3 -3234 c2 -3570 7 -3286 -60
-3387 -38 -56 -114 -116 -178 -141 -42 -17 -132 -18 -1350 -21 -949 -2 -1321
0 -1365 8 -156 30 -265 139 -295 295 -8 44 -10 902 -8 3265 l3 3205 31 65 c51
108 136 178 249 206 77 19 464 18 492 -1z"/>
<path d="M770 7102 c-55 -24 -55 -25 -27 -34 15 -6 27 -17 27 -27 0 -39 15
-29 37 25 14 31 23 57 21 59 -2 1 -28 -9 -58 -23z m25 -32 c-6 -20 -7 -21 -20
-3 -12 15 -11 19 3 24 22 8 25 5 17 -21z"/>
<path d="M2840 7075 c0 -28 4 -44 10 -40 6 3 10 21 10 40 0 19 -4 37 -10 40
-6 4 -10 -12 -10 -40z"/>
<path d="M2920 7105 c-17 -21 -6 -29 18 -14 16 10 26 10 48 1 33 -15 46 -6 20
14 -26 18 -70 18 -86 -1z"/>
<path d="M3090 7075 l0 -45 88 0 c78 0 89 2 101 21 10 18 11 26 0 45 -12 22
-18 24 -101 24 l-88 0 0 -45z m176 17 c9 -14 9 -22 -1 -35 -10 -14 -27 -17
-91 -15 -43 0 -64 3 -46 5 28 4 32 8 32 34 0 28 2 29 48 29 35 0 50 -5 58 -18z"/>
<path d="M500 7101 c0 -5 9 -7 20 -4 25 7 26 -12 3 -26 -17 -10 -17 -10 0 -11
9 0 17 -7 17 -15 0 -18 -26 -20 -33 -2 -3 7 -6 5 -6 -5 -1 -13 7 -18 23 -18
28 0 33 10 28 56 -3 28 -8 34 -28 34 -13 0 -24 -4 -24 -9z"/>
<path d="M598 7065 c2 -25 8 -45 13 -45 5 0 9 20 9 45 0 29 -4 45 -13 45 -8 0
-11 -14 -9 -45z"/>
<path d="M640 7084 c0 -20 4 -24 19 -19 23 7 38 -12 23 -27 -8 -8 -16 -7 -28
3 -15 12 -17 12 -12 -1 2 -8 16 -15 29 -15 34 0 35 48 2 53 -13 2 -23 7 -23
12 0 5 10 11 23 13 19 4 18 4 -5 6 -24 1 -28 -3 -28 -25z"/>
<path d="M2810 7065 c0 -22 4 -34 10 -30 6 3 10 17 10 30 0 13 -4 27 -10 30
-6 4 -10 -8 -10 -30z"/>
<path d="M2937 7083 c-14 -13 -6 -19 28 -19 37 0 46 10 19 20 -20 8 -39 8 -47
-1z"/>
<path d="M2780 7055 c0 -15 4 -24 10 -20 6 3 10 12 10 20 0 8 -4 17 -10 20 -6
4 -10 -5 -10 -20z"/>
<path d="M2752 7050 c0 -14 2 -19 5 -12 2 6 2 18 0 25 -3 6 -5 1 -5 -13z"/>
<path d="M2950 7045 c0 -9 5 -15 11 -13 6 2 11 8 11 13 0 5 -5 11 -11 13 -6 2
-11 -4 -11 -13z"/>
<path d="M1284 269 c-3 -6 -2 -15 3 -20 5 -5 237 -8 568 -7 524 3 560 4 563
21 3 16 -29 17 -562 17 -396 0 -567 -3 -572 -11z"/>
</g>
</svg>
